#!OML:ASF H:\ManfredObstacles\Project 1\Capture day 2\Session 1\male.ASF
:FULLY-SPECIFIED
:DEGREES
274
root 1.98358 15.5337 2.81302 -166.607 -0.601053 176.093
lowerback -5.11252 0.36918 -5.91214
upperback 0.707167 0.85145 -1.33856
thorax 3.53768 0.290829 1.99745
lowerneck -38.2863 -0.239589 -0.387438
upperneck 39.503 -3.47041 2.47658
head 24.2313 -1.44283 0.145347
rclavicle -7.90169e-015 2.5842e-014
rhumerus -32.3465 -11.1464 -81.7082
rradius 33.546
rwrist 28.1216
rhand -1.71492 -7.40959
rfingers 7.12502
rthumb 23.9468 -35.9362
lclavicle -7.90169e-015 2.5842e-014
lhumerus -28.581 9.75548 82.574
lradius 26.8039
lwrist -41.085
lhand -0.802022 7.11844
lfingers 7.12502
lthumb 24.822 35.5273
rfemur -16.8394 9.20185 19.8262
rtibia 33.507
rfoot -27.9535 -26.5899
rtoes -13.499
lfemur -21.7031 -9.75454 -24.8618
ltibia 35.8406
lfoot -9.78857 27.0021
ltoes -0.338163
275
root 1.9847 15.5254 2.79156 -166.423 -0.650982 176.075
lowerback -5.05003 0.373665 -5.86423
upperback 0.674754 0.848152 -1.36987
thorax 3.46993 0.2924 1.93722
lowerneck -38.4131 -0.279157 -0.446046
upperneck 39.4788 -3.48908 2.50903
head 24.2577 -1.44718 0.1708
rclavicle 1.11816e-015 3.97569e-016
rhumerus -31.8211 -9.81468 -82.5975
rradius 34.459
rwrist 27.4414
rhand -1.60242 -7.46479
rfingers 7.12502
rthumb 24.0547 -35.9772
lclavicle 1.11816e-015 3.97569e-016
lhumerus -28.3237 8.07653 83.418
lradius 27.9398
lwrist -39.9357
lhand -0.882798 7.12055
lfingers 7.12502
lthumb 24.7445 35.5401
rfemur -16.9444 9.26577 19.8014
rtibia 33.5656
rfoot -28.4804 -26.7781
rtoes -14.0182
lfemur -21.8972 -9.98329 -24.8316
ltibia 36.0155
lfoot -9.7995 27.377
ltoes -0.673961
276
root 1.98539 15.5165 2.76895 -166.231 -0.696438 176.068
lowerback -4.9768 0.385178 -5.79745
upperback 0.633158 0.851998 -1.40352
thorax 3.38633 0.298443 1.86446
lowerneck -38.5622 -0.316514 -0.482165
upperneck 39.4333 -3.49857 2.52052
head 24.2698 -1.44512 0.183852
rclavicle -3.62782e-015 2.08724e-014
rhumerus -31.3478 -8.50992 -83.4485
rradius 35.4375
rwrist 26.7667
rhand -1.50321 -7.47983
rfingers 7.12502
rthumb 24.1498 -35.9797
lclavicle -3.62782e-015 2.08724e-014
lhumerus -28.131 6.40589 84.1972
lradius 29.1185
lwrist -38.8617
lhand -0.960857 7.11326
lfingers 7.12502
lthumb 24.6697 35.543
rfemur -17.056 9.32445 19.7849
rtibia 33.6292
rfoot -29.0055 -26.947
rtoes -14.5162
lfemur -22.1009 -10.2216 -24.7891
ltibia 36.2114
lfoot -9.80817 27.8218
ltoes -1.11954
277
root 1.98568 15.5071 2.74553 -166.029 -0.736423 176.072
lowerback -4.89802 0.401138 -5.71627
upperback 0.587092 0.860593 -1.43218
thorax 3.2948 0.307415 1.78914
lowerneck -38.7266 -0.354509 -0.52029
upperneck 39.3799 -3.50091 2.52829
head 24.2795 -1.44035 0.197773
rclavicle 7.20594e-016 -1.43125e-014
rhumerus -30.9011 -7.20218 -84.2656
rradius 36.4766
rwrist 26.0015
rhand -1.43215 -7.49887
rfingers 7.12502
rthumb 24.2179 -35.9896
lclavicle 7.20594e-016 -1.43125e-014
lhumerus -27.9957 4.78558 84.9187
lradius 30.3524
lwrist -37.8767
lhand -1.00079 7.1041
lfingers 7.12502
lthumb 24.6314 35.5391
rfemur -17.1823 9.37635 19.7777
rtibia 33.7011
rfoot -29.5123 -27.0906
rtoes -14.9771
lfemur -22.3221 -10.4683 -24.7327
ltibia 36.4323
lfoot -9.79817 28.3338
ltoes -1.66068
278
root 1.98555 15.4973 2.72105 -165.817 -0.76769 176.08
lowerback -4.81282 0.425139 -5.6293
upperback 0.538306 0.879195 -1.46027
thorax 3.19627 0.321607 1.71181
lowerneck -38.937 -0.392992 -0.549673
upperneck 39.322 -3.49745 2.52372
head 24.2996 -1.43169 0.205354
rclavicle 1.49585e-014 -4.1546e-014
rhumerus -30.4766 -5.91565 -85.0415
rradius 37.5582
rwrist 25.2028
rhand -1.40781 -7.50409
rfingers 7.12502
rthumb 24.2413 -35.9917
lclavicle 1.49585e-014 -4.1546e-014
lhumerus -27.9028 3.17932 85.5983
lradius 31.635
lwrist -36.8799
lhand -1.02279 7.10122
lfingers 7.12502
lthumb 24.6104 35.5391
rfemur -17.3231 9.42429 19.7714
rtibia 33.7854
rfoot -29.9949 -27.2118
rtoes -15.4221
lfemur -22.5609 -10.7144 -24.6726
ltibia 36.681
lfoot -9.7543 28.9003
ltoes -2.30075
279
root 1.98492 15.4868 2.69572 -165.598 -0.793325 176.101
lowerback -4.71788 0.458156 -5.52773
upperback 0.485183 0.908431 -1.48696
thorax 3.08736 0.341621 1.62837
lowerneck -39.1225 -0.431449 -0.556692
upperneck 39.2514 -3.49707 2.49847
head 24.2972 -1.42341 0.196123
rclavicle -1.36664e-014 2.18663e-014
rhumerus -30.0697 -4.67505 -85.7722
rradius 38.6646
rwrist 24.411
rhand -1.41414 -7.47183
rfingers 7.12502
rthumb 24.2352 -35.9603
lclavicle -1.36664e-014 2.18663e-014
lhumerus -27.849 1.62402 86.2206
lradius 32.948
lwrist -35.9916
lhand -1.01928 7.06892
lfingers 7.12502
lthumb 24.6137 35.5063
rfemur -17.4775 9.4604 19.776
rtibia 33.8807
rfoot -30.4444 -27.3121
rtoes -15.8393
lfemur -22.8239 -10.9549 -24.6002
ltibia 36.9672
lfoot -9.65237 29.522
ltoes -3.05165
280
root 1.98402 15.4758 2.66942 -165.363 -0.811905 176.134
lowerback -4.62413 0.500292 -5.41037
upperback 0.427617 0.949161 -1.5165
thorax 2.97424 0.367647 1.53389
lowerneck -39.3157 -0.477444 -0.56951
upperneck 39.1673 -3.50453 2.48224
head 24.2859 -1.41639 0.191038
rclavicle -6.06293e-015 8.15017e-015
rhumerus -29.6719 -3.49092 -86.4641
rradius 39.7972
rwrist 23.649
rhand -1.434 -7.44985
rfingers 7.12502
rthumb 24.2162 -35.9409
lclavicle -6.06293e-015 8.15017e-015
lhumerus -27.8493 0.0473292 86.7986
lradius 34.3233
lwrist -35.1129
lhand -1.00042 7.03854
lfingers 7.12502
lthumb 24.6318 35.4735
rfemur -17.6514 9.4957 19.7911
rtibia 33.9835
rfoot -30.8708 -27.4129
rtoes -16.2666
lfemur -23.1254 -11.1889 -24.5134
ltibia 37.2992
lfoot -9.4717 30.1983
ltoes -3.8872
281
root 1.98272 15.4641 2.64195 -165.122 -0.832661 176.192
lowerback -4.5232 0.547633 -5.26257
upperback 0.367012 0.995166 -1.54403
thorax 2.85435 0.396948 1.4246
lowerneck -39.5103 -0.528172 -0.580763
upperneck 39.0744 -3.51626 2.4627
head 24.2667 -1.41055 0.182594
rclavicle -2.5842e-015 -2.76311e-014
rhumerus -29.2759 -2.352 -87.1191
rradius 40.9483
rwrist 22.9267
rhand -1.44028 -7.43812
rfingers 7.12502
rthumb 24.2101 -35.9299
lclavicle -2.5842e-015 -2.76311e-014
lhumerus -27.9009 -1.50808 87.3202
lradius 35.7424
lwrist -34.3542
lhand -0.967779 6.97582
lfingers 7.12502
lthumb 24.6631 35.4065
rfemur -17.8291 9.52775 19.8331
rtibia 34.0876
rfoot -31.2707 -27.5269
rtoes -16.6686
lfemur -23.4628 -11.4135 -24.4004
ltibia 37.6894
lfoot -9.21308 30.9234
ltoes -4.78674
282
root 1.98109 15.4518 2.61303 -164.86 -0.836091 176.276
lowerback -4.42016 0.606349 -5.08938
upperback 0.283479 1.05429 -1.57061
thorax 2.70956 0.433823 1.30266
lowerneck -39.6695 -0.578758 -0.589554
upperneck 38.9666 -3.52913 2.4454
head 24.2218 -1.40499 0.1747
rclavicle 1.41634e-014 4.96962e-015
rhumerus -28.9216 -1.26447 -87.738
rradius 42.1331
rwrist 22.2428
rhand -1.4589 -7.4287
rfingers 7.12502
rthumb 24.1923 -35.9229
lclavicle 1.41634e-014 4.96962e-015
lhumerus -28.0295 -3.05608 87.7894
lradius 37.2101
lwrist -33.699
lhand -0.909497 6.89121
lfingers 7.12502
lthumb 24.719 35.3143
rfemur -18.0256 9.56455 19.896
rtibia 34.1863
rfoot -31.6401 -27.648
rtoes -17.0342
lfemur -23.8547 -11.6042 -24.262
ltibia 38.1448
lfoot -8.87639 31.6781
ltoes -5.72559
283
root 1.97887 15.4383 2.58288 -164.601 -0.845079 176.388
lowerback -4.29408 0.668193 -4.88376
upperback 0.190413 1.11488 -1.59134
thorax 2.54293 0.472286 1.1681
lowerneck -39.8331 -0.636234 -0.614804
upperneck 38.8727 -3.55638 2.44698
head 24.1934 -1.40528 0.175595
rclavicle -1.18774e-014 -2.44505e-014
rhumerus -28.5871 -0.211981 -88.3253
rradius 43.3408
rwrist 21.5653
rhand -1.5105 -7.42794
rfingers 7.12502
rthumb 24.1428 -35.9287
lclavicle -1.18774e-014 -2.44505e-014
lhumerus -28.2183 -4.57461 88.2113
lradius 38.7173
lwrist -33.142
lhand -0.823271 6.79907
lfingers 7.12502
lthumb 24.8016 35.2108
rfemur -18.2096 9.59037 19.992
rtibia 34.2745
rfoot -31.972 -27.7876
rtoes -17.3504
lfemur -24.2794 -11.7631 -24.0984
ltibia 38.6696
lfoot -8.46493 32.4275
ltoes -6.66121
284
root 1.97649 15.424 2.55106 -164.328 -0.833576 176.536
lowerback -4.16182 0.73969 -4.65463
upperback 0.0827573 1.18717 -1.60322
thorax 2.35812 0.517073 1.02971
lowerneck -40.0231 -0.694253 -0.629661
upperneck 38.7728 -3.58043 2.43425
head 24.1671 -1.40362 0.167661
rclavicle 2.78299e-015 -9.54166e-015
rhumerus -28.2799 0.820365 -88.8843
rradius 44.587
rwrist 20.8716
rhand -1.55434 -7.45492
rfingers 7.12502
rthumb 24.1008 -35.9613
lclavicle 2.78299e-015 -9.54166e-015
lhumerus -28.4684 -6.06596 88.5917
lradius 40.2623
lwrist -32.6464
lhand -0.747491 6.68021
lfingers 7.12502
lthumb 24.8742 35.0819
rfemur -18.3988 9.62115 20.1187
rtibia 34.3492
rfoot -32.2729 -27.9191
rtoes -17.5962
lfemur -24.7482 -11.8524 -23.9068
ltibia 39.261
lfoot -7.99546 33.1391
ltoes -7.5519
